#N canvas 672 23 1348 1151 10;
#X obj 166 114 bytes2any 128 0;
#X obj 65 114 bytes2any 128 0;
#X obj 66 92 udpreceive 6255;
#X obj 167 93 udpreceive 6256;
#X obj 368 116 bytes2any 128 0;
#X obj 268 114 bytes2any 128 0;
#X obj 268 94 udpreceive 6257;
#X obj 369 95 udpreceive 6258;
#X obj 577 116 bytes2any 128 0;
#X obj 476 116 bytes2any 128 0;
#X obj 477 94 udpreceive 6259;
#X obj 578 95 udpreceive 6260;
#X floatatom 65 156 5 0 0 0 - - -;
#X floatatom 581 162 5 0 0 0 - - -;
#X floatatom 167 156 5 0 0 0 - - -;
#X floatatom 269 158 5 0 0 0 - - -;
#X floatatom 368 156 5 0 0 0 - - -;
#X floatatom 477 158 5 0 0 0 - - -;
#X obj 68 136 f;
#X obj 168 134 f;
#X obj 270 135 f;
#X obj 369 136 f;
#X obj 477 136 f;
#X obj 578 137 f;
#X obj 65 206 ctlout 1 1;
#X obj 168 206 ctlout 2 1;
#X obj 268 205 ctlout 3 1;
#X obj 370 208 ctlout 4 1;
#X obj 473 204 ctlout 5 1;
#X obj 576 204 ctlout 6 1;
#X obj 700 117 bytes2any 128 0;
#X floatatom 701 158 5 0 0 0 - - -;
#X obj 701 138 f;
#X obj 699 205 ctlout 6 1;
#X obj 701 96 udpreceive 6261;
#X obj 820 118 bytes2any 128 0;
#X floatatom 821 159 5 0 0 0 - - -;
#X obj 821 139 f;
#X obj 819 206 ctlout 6 1;
#X obj 821 97 udpreceive 6262;
#X obj 942 121 bytes2any 128 0;
#X floatatom 943 162 5 0 0 0 - - -;
#X obj 943 142 f;
#X obj 941 209 ctlout 6 1;
#X obj 941 232 vsl 15 128 0 100 0 0 empty empty empty 0 -9 0 10 -262144
-1 -1 1981 1;
#X obj 943 100 udpreceive 6263;
#X obj 64 226 vsl 15 128 0 100 0 0 empty empty empty 0 -9 0 10 -262144
-1 -1 13 1;
#X obj 167 227 vsl 15 128 0 100 0 0 empty empty empty 0 -9 0 10 -262144
-1 -1 7976 1;
#X obj 267 227 vsl 15 128 0 100 0 0 empty empty empty 0 -9 0 10 -262144
-1 -1 1778 1;
#X obj 370 228 vsl 15 128 0 100 0 0 empty empty empty 0 -9 0 10 -262144
-1 -1 597 1;
#X obj 474 226 vsl 15 128 0 100 0 0 empty empty empty 0 -9 0 10 -262144
-1 -1 25 1;
#X obj 577 227 vsl 15 128 0 100 0 0 empty empty empty 0 -9 0 10 -262144
-1 -1 0 1;
#X obj 696 227 vsl 15 128 0 100 0 0 empty empty empty 0 -9 0 10 -262144
-1 -1 190 1;
#X obj 818 229 vsl 15 128 0 100 0 0 empty empty empty 0 -9 0 10 -262144
-1 -1 140 1;
#X obj 58 542 osc~;
#X obj 66 390 mtof;
#X obj 63 522 * 22;
#X obj 157 533 osc~;
#X obj 165 381 mtof;
#X obj 162 513 * 22;
#X obj 261 539 osc~;
#X obj 266 387 mtof;
#X obj 263 519 * 22;
#X obj 357 530 osc~;
#X obj 365 378 mtof;
#X obj 362 510 * 22;
#X obj 496 499 osc~;
#X obj 487 381 mtof;
#X obj 501 479 * 22;
#X obj 595 490 osc~;
#X obj 586 372 mtof;
#X obj 585 390 * 22;
#X obj 696 496 osc~;
#X obj 687 378 mtof;
#X obj 701 476 * 22;
#X obj 795 487 osc~;
#X obj 786 369 mtof;
#X obj 785 459 * 22;
#X obj 423 378 vsl 15 128 0 127 0 0 empty empty empty 0 -9 0 10 -262144
-1 -1 12 1;
#X text 64 70 biomass;
#X text 167 72 coal;
#X text 271 73 imports;
#X text 372 74 gas;
#X text 764 657 https://carbon-intensity.github.io/api-definitions/#generation
;
#X text 761 719 https://api.carbonintensity.org.uk/regional;
#X text 685 20 0-17;
#X obj 1010 426 osc~;
#X obj 1011 398 +~;
#X obj 1061 396 *~;
#X floatatom 1058 314 5 0 0 0 - - -;
#X floatatom 1142 394 5 0 0 0 - - -;
#X obj 1060 346 osc~;
#X floatatom 1011 364 5 0 0 0 - - -;
#X obj 915 388 * 4;
#X obj 880 369 + 60;
#X obj 553 564 loadbang;
#X obj 727 1150 udpsend;
#X msg 734 1121 connect 127.0.0.1 5005;
#X obj 546 807 vradio 15 1 0 18 empty empty empty 0 -8 0 10 -262144
-1 -1 4;
#X obj 670 1106 + 100;
#X obj 1051 99 udpreceive 6264;
#X obj 1050 141 print;
#X obj 1050 120 bytes2any 128 1;
#X text 479 72 nucear;
#X text 582 76 other;
#X text 699 76 hydro;
#X text 821 78 solar;
#X text 942 78 wind;
#X text 1055 78 region;
#X obj 1152 300 line;
#X obj 1160 277 \$1 \$1;
#X msg 1201 285 \$1;
#X obj 1146 353 line;
#X obj 1154 330 \$1 \$1;
#X obj 938 401 line;
#X obj 946 378 \$1 \$1;
#X floatatom 638 292 5 0 0 0 - - -;
#X obj 1205 368 loadbang;
#X obj 544 761 random 17;
#X obj 543 714 tgl 15 0 empty empty empty 17 7 0 10 -262144 -1 -1 0
1;
#X obj 72 451 line;
#X obj 80 428 \$1 \$1;
#X msg 124 435 \$1;
#X obj 162 455 line;
#X obj 170 432 \$1 \$1;
#X msg 214 439 \$1;
#X obj 260 456 line;
#X obj 268 433 \$1 \$1;
#X msg 312 440 \$1;
#X obj 355 459 line;
#X obj 363 436 \$1 \$1;
#X msg 407 443 \$1;
#X obj 511 444 line;
#X obj 519 421 \$1 \$1;
#X msg 563 428 \$1;
#X obj 601 448 line;
#X obj 609 425 \$1 \$1;
#X msg 653 432 \$1;
#X obj 699 449 line;
#X obj 707 426 \$1 \$1;
#X msg 751 433 \$1;
#X obj 794 452 line;
#X obj 802 429 \$1 \$1;
#X msg 846 436 \$1;
#X obj 1252 542 rev3~ 100 95 3000 20;
#X floatatom 545 786 5 0 0 0 - - -;
#X msg 445 395 0.125;
#X obj 732 1098 delay 1000;
#X obj 737 1077 loadbang;
#X msg 385 681 \; pd dsp 1;
#X obj 385 659 loadbang;
#X text 566 804 south scoltand;
#X text 568 820 north west england;
#X text 567 835 north east england;
#X text 569 849 yorkshire;
#X text 571 863 north wales and merseyside;
#X text 571 877 south wales;
#X obj 923 501 vsl 15 100 0 1000 0 0 empty empty empty 0 -9 0 10 -262144
-1 -1 0 1;
#X text 572 892 west midlands;
#X text 574 911 east midlands;
#X text 574 927 east england;
#X text 574 941 south west england;
#X text 574 955 south england;
#X text 573 970 London;
#X text 573 985 south east england;
#X text 575 999 england;
#X text 576 1015 scotland;
#X text 577 1030 wales;
#X text 578 1049 great britain;
#X floatatom 687 1085 5 0 0 0 - - -;
#X text 604 34 REGIONAL CARBON INTENSITY UK;
#X text 146 769 gCO2eq/kWh' are grams of carbon dioxide equivalent
per kilowatt-hour of electricity generated;
#X obj 147 635 vsl 15 128 0 600 0 0 empty empty empty 0 -9 0 10 -261682
-1 -1 12700 1;
#X obj 37 656 bytes2any 128 0;
#X obj 38 677 f;
#X obj 38 635 udpreceive 6265;
#X text 169 742 CARBON INTENSITY FACTOR;
#X obj 193 655 line;
#X obj 201 632 \$1 \$1;
#X msg 245 639 \$1;
#X floatatom 623 610 5 0 0 0 - - -;
#X obj 709 550 lop~;
#X obj 738 591 dac~;
#X obj 202 582 lop~;
#X obj 669 688 dac~;
#X obj 1197 601 lop~;
#X obj 1206 632 dac~;
#X obj 544 739 metro 4000;
#X msg 1212 387 768;
#X obj 670 660 *~ 0.1;
#X connect 0 0 19 0;
#X connect 1 0 18 0;
#X connect 2 0 1 0;
#X connect 3 0 0 0;
#X connect 4 0 21 0;
#X connect 5 0 20 0;
#X connect 6 0 5 0;
#X connect 7 0 4 0;
#X connect 8 0 23 0;
#X connect 9 0 22 0;
#X connect 10 0 9 0;
#X connect 11 0 8 0;
#X connect 12 0 24 0;
#X connect 12 0 46 0;
#X connect 12 0 55 0;
#X connect 13 0 29 0;
#X connect 13 0 51 0;
#X connect 13 0 70 0;
#X connect 14 0 25 0;
#X connect 14 0 47 0;
#X connect 14 0 58 0;
#X connect 15 0 26 0;
#X connect 15 0 48 0;
#X connect 15 0 61 0;
#X connect 16 0 27 0;
#X connect 16 0 49 0;
#X connect 16 0 64 0;
#X connect 17 0 28 0;
#X connect 17 0 50 0;
#X connect 17 0 67 0;
#X connect 18 0 12 0;
#X connect 19 0 14 0;
#X connect 20 0 15 0;
#X connect 21 0 16 0;
#X connect 22 0 17 0;
#X connect 23 0 13 0;
#X connect 30 0 32 0;
#X connect 31 0 33 0;
#X connect 31 0 52 0;
#X connect 31 0 139 0;
#X connect 32 0 31 0;
#X connect 34 0 30 0;
#X connect 35 0 37 0;
#X connect 36 0 38 0;
#X connect 36 0 53 0;
#X connect 37 0 36 0;
#X connect 39 0 35 0;
#X connect 40 0 42 0;
#X connect 41 0 43 0;
#X connect 41 0 44 0;
#X connect 41 0 76 0;
#X connect 42 0 41 0;
#X connect 44 0 113 0;
#X connect 45 0 40 0;
#X connect 47 0 94 0;
#X connect 49 0 89 0;
#X connect 54 0 183 0;
#X connect 55 0 121 0;
#X connect 56 0 54 0;
#X connect 57 0 183 0;
#X connect 58 0 124 0;
#X connect 59 0 57 0;
#X connect 60 0 183 0;
#X connect 61 0 127 0;
#X connect 62 0 60 0;
#X connect 63 0 183 0;
#X connect 64 0 130 0;
#X connect 65 0 63 0;
#X connect 65 0 180 0;
#X connect 66 0 181 0;
#X connect 67 0 133 0;
#X connect 68 0 66 0;
#X connect 69 0 181 0;
#X connect 70 0 71 0;
#X connect 71 0 136 0;
#X connect 72 0 181 0;
#X connect 73 0 139 0;
#X connect 74 0 72 0;
#X connect 75 0 181 0;
#X connect 76 0 77 0;
#X connect 77 0 75 0;
#X connect 78 0 65 1;
#X connect 78 0 62 1;
#X connect 78 0 59 1;
#X connect 78 0 56 1;
#X connect 78 0 68 1;
#X connect 78 0 71 1;
#X connect 78 0 74 1;
#X connect 78 0 77 1;
#X connect 86 0 144 0;
#X connect 86 0 185 0;
#X connect 87 0 86 0;
#X connect 88 0 87 1;
#X connect 89 0 110 0;
#X connect 90 0 88 1;
#X connect 91 0 88 0;
#X connect 92 0 87 0;
#X connect 93 0 115 0;
#X connect 94 0 93 0;
#X connect 95 0 146 0;
#X connect 97 0 96 0;
#X connect 98 0 99 0;
#X connect 98 0 169 0;
#X connect 99 0 96 0;
#X connect 100 0 102 0;
#X connect 102 0 101 0;
#X connect 109 0 91 0;
#X connect 110 0 109 0;
#X connect 111 0 110 1;
#X connect 111 0 113 1;
#X connect 111 0 115 1;
#X connect 112 0 90 0;
#X connect 113 0 112 0;
#X connect 114 0 92 0;
#X connect 115 0 114 0;
#X connect 116 0 111 0;
#X connect 116 0 143 0;
#X connect 116 0 140 0;
#X connect 116 0 137 0;
#X connect 116 0 134 0;
#X connect 116 0 131 0;
#X connect 116 0 128 0;
#X connect 116 0 125 0;
#X connect 116 0 122 0;
#X connect 116 0 179 0;
#X connect 117 0 188 0;
#X connect 118 0 98 0;
#X connect 118 0 145 0;
#X connect 119 0 187 0;
#X connect 120 0 56 0;
#X connect 121 0 120 0;
#X connect 122 0 121 1;
#X connect 123 0 59 0;
#X connect 124 0 123 0;
#X connect 125 0 124 1;
#X connect 126 0 62 0;
#X connect 127 0 126 0;
#X connect 128 0 127 1;
#X connect 129 0 65 0;
#X connect 130 0 129 0;
#X connect 131 0 130 1;
#X connect 132 0 68 0;
#X connect 133 0 132 0;
#X connect 134 0 133 1;
#X connect 135 0 69 0;
#X connect 136 0 135 0;
#X connect 137 0 136 1;
#X connect 138 0 74 0;
#X connect 139 0 138 0;
#X connect 140 0 139 1;
#X connect 142 0 141 0;
#X connect 143 0 142 1;
#X connect 146 0 78 0;
#X connect 147 0 97 0;
#X connect 148 0 147 0;
#X connect 150 0 149 0;
#X connect 157 0 116 0;
#X connect 172 0 178 0;
#X connect 173 0 174 0;
#X connect 174 0 172 0;
#X connect 175 0 173 0;
#X connect 177 0 181 1;
#X connect 177 0 183 1;
#X connect 177 0 185 1;
#X connect 178 0 177 0;
#X connect 179 0 178 1;
#X connect 181 0 189 0;
#X connect 183 0 189 0;
#X connect 185 0 189 0;
#X connect 187 0 118 0;
#X connect 188 0 116 0;
#X connect 189 0 184 0;
#X connect 189 0 184 1;
